<mxfile host="app.diagrams.net" modified="2022-04-18T07:20:16.209Z" agent="5.0 (Windows NT 10.0; Win64; x64) AppleWebKit/537.36 (KHTML, like Gecko) Chrome/100.0.4896.88 Safari/537.36" etag="vrSgmsIUntQ4FRTllttg" version="17.4.4" type="github">
  <diagram id="wmwzS6v5hkIarNa9_CF8" name="Page-1">
    <mxGraphModel dx="424" dy="223" grid="0" gridSize="10" guides="1" tooltips="1" connect="1" arrows="1" fold="1" page="1" pageScale="1" pageWidth="827" pageHeight="1169" math="0" shadow="0">
      <root>
        <mxCell id="0" />
        <mxCell id="1" parent="0" />
        <mxCell id="tpipHvDcS-LkZLoqLxp2-10" value="" style="rounded=0;whiteSpace=wrap;html=1;dashed=1;" vertex="1" parent="1">
          <mxGeometry x="147.5" y="473" width="577" height="150" as="geometry" />
        </mxCell>
        <mxCell id="tpipHvDcS-LkZLoqLxp2-9" value="" style="rounded=0;whiteSpace=wrap;html=1;dashed=1;" vertex="1" parent="1">
          <mxGeometry x="147" y="249" width="577" height="150" as="geometry" />
        </mxCell>
        <mxCell id="tpipHvDcS-LkZLoqLxp2-8" value="" style="rounded=0;whiteSpace=wrap;html=1;dashed=1;" vertex="1" parent="1">
          <mxGeometry x="148" y="10" width="576" height="150" as="geometry" />
        </mxCell>
        <mxCell id="tpipHvDcS-LkZLoqLxp2-1" value="运营管理平台&lt;br&gt;(ZMS)" style="rounded=0;whiteSpace=wrap;html=1;" vertex="1" parent="1">
          <mxGeometry x="209" y="278" width="132" height="57" as="geometry" />
        </mxCell>
        <mxCell id="tpipHvDcS-LkZLoqLxp2-4" style="edgeStyle=orthogonalEdgeStyle;rounded=0;orthogonalLoop=1;jettySize=auto;html=1;entryX=0.25;entryY=0;entryDx=0;entryDy=0;" edge="1" parent="1" target="tpipHvDcS-LkZLoqLxp2-1">
          <mxGeometry relative="1" as="geometry">
            <mxPoint x="242" y="129" as="sourcePoint" />
          </mxGeometry>
        </mxCell>
        <mxCell id="tpipHvDcS-LkZLoqLxp2-2" value="交付运营" style="shape=umlActor;verticalLabelPosition=bottom;verticalAlign=top;html=1;outlineConnect=0;" vertex="1" parent="1">
          <mxGeometry x="226" y="42" width="30" height="60" as="geometry" />
        </mxCell>
        <mxCell id="tpipHvDcS-LkZLoqLxp2-3" value="订单系统&lt;br&gt;（OMC）" style="rounded=0;whiteSpace=wrap;html=1;" vertex="1" parent="1">
          <mxGeometry x="209" y="533" width="132" height="57" as="geometry" />
        </mxCell>
        <mxCell id="tpipHvDcS-LkZLoqLxp2-5" value="角色" style="text;html=1;strokeColor=#b85450;fillColor=#f8cecc;align=center;verticalAlign=middle;whiteSpace=wrap;rounded=0;" vertex="1" parent="1">
          <mxGeometry x="56" y="59" width="60" height="30" as="geometry" />
        </mxCell>
        <mxCell id="tpipHvDcS-LkZLoqLxp2-6" value="前端" style="text;html=1;strokeColor=#82b366;fillColor=#d5e8d4;align=center;verticalAlign=middle;whiteSpace=wrap;rounded=0;" vertex="1" parent="1">
          <mxGeometry x="56" y="291.5" width="60" height="30" as="geometry" />
        </mxCell>
        <mxCell id="tpipHvDcS-LkZLoqLxp2-7" value="后端" style="text;html=1;strokeColor=#B09500;fillColor=#e3c800;align=center;verticalAlign=middle;whiteSpace=wrap;rounded=0;fontColor=#000000;" vertex="1" parent="1">
          <mxGeometry x="56" y="512.5" width="60" height="30" as="geometry" />
        </mxCell>
        <mxCell id="tpipHvDcS-LkZLoqLxp2-12" value="1.0 打开异常跟进对话框" style="text;html=1;strokeColor=none;fillColor=none;align=center;verticalAlign=middle;whiteSpace=wrap;rounded=0;dashed=1;" vertex="1" parent="1">
          <mxGeometry x="148" y="183" width="76" height="36" as="geometry" />
        </mxCell>
        <mxCell id="tpipHvDcS-LkZLoqLxp2-13" style="edgeStyle=orthogonalEdgeStyle;rounded=0;orthogonalLoop=1;jettySize=auto;html=1;exitX=0.25;exitY=1;exitDx=0;exitDy=0;entryX=0.25;entryY=0;entryDx=0;entryDy=0;" edge="1" parent="1" source="tpipHvDcS-LkZLoqLxp2-1" target="tpipHvDcS-LkZLoqLxp2-3">
          <mxGeometry relative="1" as="geometry">
            <mxPoint x="240.52" y="335" as="sourcePoint" />
            <mxPoint x="238" y="531" as="targetPoint" />
            <Array as="points">
              <mxPoint x="242" y="433" />
              <mxPoint x="241" y="433" />
              <mxPoint x="241" y="533" />
            </Array>
          </mxGeometry>
        </mxCell>
        <mxCell id="tpipHvDcS-LkZLoqLxp2-14" value="1.1 根据子订单编号查询订单需求" style="text;html=1;strokeColor=none;fillColor=none;align=center;verticalAlign=middle;whiteSpace=wrap;rounded=0;dashed=1;" vertex="1" parent="1">
          <mxGeometry x="150" y="416" width="76" height="36" as="geometry" />
        </mxCell>
      </root>
    </mxGraphModel>
  </diagram>
</mxfile>
